HIERARCHY
ROOT Hips
{
	OFFSET 0.000000 105.850000 0.000000
	CHANNELS 6 Xposition Yposition Zposition Yrotation Xrotation Zrotation
	JOINT RightUpLeg
	{
		OFFSET -11.500000 -1.850000 0.000000
		CHANNELS 3 Yrotation Xrotation Zrotation
		JOINT RightLeg
		{
			OFFSET 0.000000 -48.000000 0.000000
			CHANNELS 3 Yrotation Xrotation Zrotation
			JOINT RightFoot
			{
				OFFSET 0.000000 -48.000000 0.000000
				CHANNELS 3 Yrotation Xrotation Zrotation
				End Site
				{
					OFFSET 0.000000 -8.000000 19.600000
				}
			}
		}
	}
	JOINT LeftUpLeg
	{
		OFFSET 11.500000 -1.850000 0.000000
		CHANNELS 3 Yrotation Xrotation Zrotation
		JOINT LeftLeg
		{
			OFFSET 0.000000 -48.000000 0.000000
			CHANNELS 3 Yrotation Xrotation Zrotation
			JOINT LeftFoot
			{
				OFFSET 0.000000 -48.000000 0.000000
				CHANNELS 3 Yrotation Xrotation Zrotation
				End Site
				{
					OFFSET 0.000000 -8.000000 19.600000
				}
			}
		}
	}
	JOINT Spine
	{
		OFFSET 0.000000 16.654000 0.000000
		CHANNELS 3 Yrotation Xrotation Zrotation
		JOINT Spine1
		{
			OFFSET 0.000000 11.312000 0.000000
			CHANNELS 3 Yrotation Xrotation Zrotation
			JOINT Spine2
			{
				OFFSET 0.000000 11.780000 0.000000
				CHANNELS 3 Yrotation Xrotation Zrotation
				JOINT Spine3
				{
					OFFSET 0.000000 11.312000 0.000000
					CHANNELS 3 Yrotation Xrotation Zrotation
					JOINT Neck
					{
						OFFSET 0.000000 12.091000 0.000000
						CHANNELS 3 Yrotation Xrotation Zrotation
						JOINT Head
						{
							OFFSET 0.000000 9.000000 0.000000
							CHANNELS 3 Yrotation Xrotation Zrotation
							End Site
							{
								OFFSET 0.000000 18.000000 0.000000
							}
						}
					}
					JOINT RightShoulder
					{
						OFFSET -3.500000 8.061000 0.000000
						CHANNELS 3 Yrotation Xrotation Zrotation
						JOINT RightArm
						{
							OFFSET -14.000000 0.000000 0.000000
							CHANNELS 3 Yrotation Xrotation Zrotation
							JOINT RightForeArm
							{
								OFFSET -29.000000 0.000000 0.000000
								CHANNELS 3 Yrotation Xrotation Zrotation
								JOINT RightHand
								{
									OFFSET -28.000000 0.000000 0.000000
									CHANNELS 3 Yrotation Xrotation Zrotation
									End Site
									{
										OFFSET -3.672000 0.562000 0.822000
									}
								}
							}
						}
					}
					JOINT LeftShoulder
					{
						OFFSET 3.500000 8.061000 0.000000
						CHANNELS 3 Yrotation Xrotation Zrotation
						JOINT LeftArm
						{
							OFFSET 14.000000 0.000000 0.000000
							CHANNELS 3 Yrotation Xrotation Zrotation
							JOINT LeftForeArm
							{
								OFFSET 29.000000 0.000000 0.000000
								CHANNELS 3 Yrotation Xrotation Zrotation
								JOINT LeftHand
								{
									OFFSET 28.000000 0.000000 0.000000
									CHANNELS 3 Yrotation Xrotation Zrotation
									End Site
									{
										OFFSET 3.672000 0.562000 0.822000
									}
								}
							}
						}
					}
				}
			}
		}
	}
}
MOTION
Frames: 7
Frame Time: 0.041667
249.52891962518547 101.17562486921074 59.038559167102555 92.11812618061505 0.5386223596093949 -0.879923852119728 -5.911263286882267 2.7142112191340932 3.2326461275828624 0.0008133389542600809 41.47338563533126 0.003914841630872294 -5.64515831275319 -5.590606444588921 6.019937651123486 -9.399964308434557 -31.832910339068132 3.2801675139036477 0.0019314557665350632 27.771291123163746 0.002697464291548078 5.539072102350003 -11.480848656592922 -3.908466617150786 5.1525773271176725 4.698913464611663 1.5430979574172812 1.301335007299393 1.2503593428463606 0.3465761285940479 2.1943225339355212 2.106930631814621 0.5919306921373185 0.511451956952385 2.20773404537497 -0.19464120166403462 0.022769053246886557 20.152219708753034 -1.9204440431335679 9.28331334910315 37.298030126166424 -1.0194098359308224 -1.9088419137128319 9.049726327793348 -7.304797327623455 -9.874363572402858 -5.554433624964881 64.70895982044628 41.52288672074948 3.4088090941130926 27.138173903871337 0.9370284196357596 5.766320726611939 -11.47392310366766 -2.132930347645493 9.998631937629124 -10.039271091380986 17.426227528268754 1.2539896681754255 -55.94617995720449 -50.55924719364012 1.2842392662283062 -8.167476352191793 7.760071192714513 30.245511078351363 0.35077102221411677
330.4773779779075 99.61620325120222 60.71745679930506 90.75390021668446 5.140218415028251 0.8260286431011671 -7.439852587301725 -40.5076769900439 6.8170148008373195 0.008053086248960416 40.71653471551631 0.0010009394727066936 -19.69696343100585 -15.425727243665047 6.879846863043666 0.7768244475841669 -3.6728661382732155 -0.5950611302336654 0.005103829487349715 47.71227347840295 0.0006507246601624386 -1.039194640372917 -0.4106367871203505 9.747887789918513 -0.9419347771959504 7.812592593082157 2.9169284523898233 -0.211828062233042 1.9431256320447063 0.7341728520796915 -0.2748697084625538 3.199188213599538 1.2227122625664693 0.7869930454846988 1.268859626480973 -0.49089796084442205 0.7948140503130012 1.3073224963638104 -0.49925588045786395 11.879957997617643 30.613943827095472 -6.635551192383517 -8.821471238731641 9.039509979714492 -8.039575321334828 -14.905783693008367 0.3174447415539253 68.4683122493573 31.287232503066104 23.504847259015126 25.09102258258227 -5.4672082998316505 24.492893206042297 7.899277752241604 -13.512397906704228 6.044778036971562 -11.457245866361118 2.5430202038418663 0.6335015232047713 -42.75560875434424 -68.7515332944919 -14.168671260176502 -28.549331386726998 -5.053709467981944 15.976710264280559 11.11940369037331
249.5123727020452 101.17934312498402 59.04161725108132 92.1194116365321 0.5414536251064394 -0.8814982518702804 -5.9066858169121135 2.7117021265380266 3.2409464654290367 -0.009581887034980436 41.46653559547958 -2.7157602490634295e-05 -5.648927552608848 -5.59842680221761 6.021555803044286 -9.403515094435473 -31.833636943053527 3.274126304320519 -0.0034106570761327343 27.772540958724136 -8.008504834060533e-06 5.527157596376744 -11.490450804535975 -3.906361454579918 5.167611575520506 4.695384247913348 1.5482377600225112 1.3016987669072637 1.2505905143006721 0.35679341569841483 2.184346480045825 2.1192322448752496 0.6022077862202146 0.5165542078350587 2.216825181724968 -0.19562153175700098 0.022310070432866792 20.146861321956937 -1.9231943461568222 9.272735700107498 37.29724408027184 -1.0302669456197822 -1.9147892343997035 9.048837945156857 -7.309646911185617 -9.873498951633955 -5.554814399424522 64.7095427571207 41.53389521893736 3.410137411798883 27.144592013783306 0.935894697383801 5.7623848764350205 -11.488290162862087 -2.1312273748171497 10.007032042140732 -10.04129008966675 17.42992722028352 1.242984183664046 -55.94345963566704 -50.55638102408082 1.2875520420052269 -8.170185129774824 7.771833987430364 30.25365409127435 0.33920709710071606
330.4678676491319 99.6213810861366 60.72277432297083 90.75589673949834 5.142679484876539 0.8350741441738723 -7.433944300390835 -40.50694319801958 6.828836633322773 -0.008293837020981541 40.724473473227405 0.0043709478752170915 -19.68537532427645 -15.422343127300687 6.884060034325059 0.7640769309579165 -3.678386308588859 -0.5978493229538525 -0.0008228718890598561 47.711223528890095 0.005295627423971015 -1.037429883520615 -0.4041242308949448 9.753262895222317 -0.9388780081506168 7.820249243116487 2.922598836623908 -0.20732322543300627 1.9463291311653566 0.7323431552931874 -0.28363364240765276 3.193127301021642 1.227143989126129 0.7818326675796197 1.2649275151089345 -0.48937349557800786 0.7788007141485863 1.3109095706694551 -0.4969522529555334 11.88103484589754 30.604050858598924 -6.631585536976992 -8.82185936450751 9.032659965026161 -8.044270382008165 -14.911100701293892 0.31324968227241384 68.46714816003112 31.279625539775864 23.510235333855682 25.092985285482094 -5.483667380956321 24.49793479604497 7.903396450353435 -13.5211931277928 6.03847927046785 -11.446998539928204 2.534676584154423 0.6311191427115885 -42.758222831505314 -68.747136732037 -14.180404693842705 -28.55056527892928 -5.065550890021974 15.982676693646042 11.118630715510584
249.51858835050902 101.17940272240726 59.03592055302079 92.12335678500997 0.5428266788974204 -0.8791588926687762 -5.915635050818934 2.712485955892693 3.2357743437747035 -0.00124820214089925 41.469266893852016 0.00110429521735426 -5.654578307560347 -5.59103262507712 6.012971816486567 -9.398391072705612 -31.840467791400602 3.281116593865264 -0.005863098321831813 27.76895357221854 0.007486744248447315 5.531910326683186 -11.489194943063287 -3.9055227513194493 5.1617449062684235 4.697987057178555 1.5499056171854924 1.2992360782006696 1.252382797372412 0.34403567448636846 2.18461397818758 2.1295438560678255 0.5974393565314359 0.5031681896524113 2.211189643478603 -0.1879964757928858 0.019580950555804087 20.14846144274003 -1.920355573977601 9.293035474453504 37.29645278149453 -1.0213000593685626 -1.9154346459978568 9.049694705695691 -7.312914625356104 -9.877355730665489 -5.550267412857654 64.71238786158227 41.52861670203513 3.4128759938557676 27.130169286629837 0.9374738746169775 5.757259092013924 -11.475132589314644 -2.131069726159391 10.00503428425442 -10.039836218483869 17.423498747040277 1.25145655179635 -55.9541350620898 -50.55541801629099 1.293886128153005 -8.15420193611897 7.7688293275985565 30.244265798582457 0.3470515478787833
330.47777652560774 99.62214714854335 60.72593466311135 90.75485747106347 5.144217659065426 0.8182128236442537 -7.442592940797432 -40.501035708115296 6.82518340569364 -0.0015963209363360023 40.72417855792303 0.0014152298812907225 -19.682936463445603 -15.424595555120037 6.879496201488634 0.7609251058590252 -3.6831547508515508 -0.6020249955983158 0.003932448820618813 47.70673451418947 0.0023863390113145976 -1.0348874110550956 -0.40114008662739437 9.750834525078336 -0.940320879857514 7.820366817413155 2.9152405864395794 -0.20084176296859158 1.9346790665377207 0.7435526952334809 -0.2829708311959132 3.2011223087566885 1.2294892984710308 0.791351205450236 1.274472104345365 -0.49443137600701376 0.7906632174763537 1.2951193177375953 -0.5023675236138075 11.879495142068505 30.606561948515385 -6.629571134633765 -8.820916367941297 9.034873713938541 -8.039277058017914 -14.907423431785963 0.32394985267855947 68.46581314330369 31.27705001300256 23.501133516669746 25.086713208271963 -5.484318843833274 24.497317969135036 7.898931532941172 -13.501549797346957 6.04679591221026 -11.449797697303456 2.5381610845033737 0.6310135099758111 -42.76780881431587 -68.74863749162198 -14.17853343734754 -28.550908510274766 -5.067069487248835 15.969221164564123 11.122126466688513
249.5254787267991 101.17663950700488 59.039454723673856 92.11777792249761 0.5354018254163792 -0.8867029658730128 -5.914790616403711 2.71049494752166 3.233133996643103 0.0003677802092648267 41.46740461777932 0.0056333863793928745 -5.649374147642177 -5.596318218926497 6.015390932648043 -9.40098527906617 -31.841571623386237 3.280821901256066 0.002393821585345318 27.77930585851898 0.0005148809667754632 5.531769142915005 -11.484292973165301 -3.9135958139786897 5.160045067798139 4.695160858845585 1.5563381414065776 1.3011583365356114 1.2543466391704614 0.3497299335203959 2.1929794514179797 2.1202897936812826 0.5939574553163157 0.5028057224702813 2.210319313629693 -0.18453715148728045 0.022747829239265365 20.13980420094181 -1.9196933567354757 9.273121017191766 37.29990376716464 -1.0165638685003486 -1.9065245461440006 9.055456898079001 -7.301590568534168 -9.866584963040813 -5.548069707871895 64.71234929502684 41.529754556331724 3.4083638405243906 27.139013319991705 0.9416513118955326 5.748041820853775 -11.485830118449758 -2.1268165809404915 10.00434899304133 -10.045088191213889 17.424858412104335 1.2545167395090697 -55.94391484847918 -50.55547848390713 1.2844871424121762 -8.167758651608743 7.77373206857949 30.252461173510255 0.35222878980207234
